<svg version="1.1" id="Layer_1" xmlns="http://www.w3.org/2000/svg" x="0" y="0" viewBox="0 0 292.8 317" xml:space="preserve">
  <style>
    .st0{fill:#ffc400}.st2{fill:#ffd200}.st4{fill:#fe0}.st6{fill:#af6a00}.st7{fill:#955a00}
  </style>
  <g transform="translate(-1.25 -466.15) scale(1.2171)">
    <g id="Symbol_1_copy_0_Layer6_0_FILL">
      <path class="st0" d="M110.6 392.9c-10.5.7-20.4 3.3-29.8 8-7.8 4.1-15.1 9.1-22 15.1-7.2 5.7-13.7 12.2-19.4 19.4v-.2c-5.7 7.4-10.7 15.4-14.8 24-4.4 8.9-7.8 18-10.2 27.4-2.6 9.7-4.2 19.6-4.8 29.5-.5 9.2-.1 18.5 1.4 27.9 1.5 9 4 17.8 7.6 26.5v.1c3.4 8.5 7.7 16.5 13.1 24 5.8 8.2 13 15.2 21.6 21 8.7 5.8 18.1 9.9 28 12.3l-.2-.2c9.5 1.6 19.1 3.2 28.6 4.5 9.7 1.8 19.2 1.8 28.3 0 10.4-2.1 20.2-5.5 29.5-10.2 4.6-2.4 9.1-5 13.4-7.9h-.1c8.5-6.1 16.2-13.3 22.9-21.6 5.3-6.7 9.9-13.9 13.8-21.5 4.7-9.4 8.3-19.2 11-29.5 1.8-7.6 3.1-15.1 3.7-22.7v.7c0-.4.1-.8.1-1.3 0-1.4.1-2.8.2-4.2 0 .1-.1.2-.2.2.3-11.9.1-21.5-.6-28.9-1-9-3.1-17.5-6.3-25.6-3.5-8.2-7.7-16.1-12.8-23.6-5.7-8.8-13.1-15.9-22.1-21.4-8.6-5.3-17.4-10.2-26.4-14.6-8.9-4.1-18-6.4-27.4-6.9h-.1c-8.8-1.2-17.4-1.3-26-.3m56.3 15.6c1.1.4 2 .9 2.9 1.5 16 7.7 28.7 18 37.9 30.9 2.2 3.1 4.2 6.4 6 9.9.9 1.7 1.6 3.4 2.3 5.1v-.3c7.4 16.2 10.9 33.3 10.7 51.2l-.5 9.1c-1 7.2-2.4 14.7-4.2 22.5-2.2 8.4-4.3 16.6-6.3 24.6-15.2 29.2-27.5 46.6-36.8 52.4-1.9 1.1-3.6 2-5.1 2.9-1.1.6-2.1 1.2-3.1 1.8-.5.2-1 .3-1.4.4-1 .3-2 .5-2.9.5h-.3c-.2-.1-.4-.1-.6-.1-.3 2.8-10.8 6.5-31.5 11.2-10.9.1-24.6-1.8-41.2-5.6-6.4-.6-7.8-1.2-4.2-1.6 25.6-5.2 43-8.5 52.2-10l-.1-.4c.5-.3 1.1-.6 1.8-.9 1.8-1.1 3.6-2.2 5.4-3.4 1.3-1 2.5-1.9 3.7-2.8h.2c15.6-11.3 27.8-25.5 36.6-42.5 1.9-3.7 3.8-7.5 5.5-11.3 2.7-6.6 5-13.6 6.8-20.9 2.3-8.9 3.8-17.6 4.6-26.1l.1.1c.1-2.6.2-5.4.4-8.5.4-19-3.3-37.1-11.2-54.4-2.1-4.6-4.4-9-7.2-13-5.9-9-12.7-16.5-20.5-22.3z"/>
      <path d="M151.5 607.5c-1.2.9-2.4 1.8-3.7 2.8-1.7 1.2-3.5 2.3-5.4 3.4-.7.3-1.3.6-1.8.9l.1.4c-9.2 1.5-26.6 4.8-52.2 10-3.6.4-2.2 1 4.2 1.6 16.5 3.8 30.3 5.7 41.2 5.6 20.6-4.7 31.1-8.4 31.5-11.2.2 0 .4 0 .6.1h.3c.9 0 1.9-.2 2.9-.5.4-.1.9-.2 1.4-.4 1-.6 2-1.2 3.1-1.8 1.4-.9 3.1-1.8 5.1-2.9 9.3-5.7 21.6-23.2 36.8-52.4-8.1-3.8-15.4-6.9-21.9-9.4-1.7 3.9-3.6 7.6-5.5 11.3-8.9 17-21.1 31.1-36.6 42.5h-.1z" fill="#f5a100"/>
      <path class="st2" d="M226.7 506.8l-21.1-8.5c-.1 3-.3 5.9-.4 8.5l-.1-.1c-.8 8.5-2.3 17.2-4.6 26.1-1.8 7.3-4.1 14.3-6.8 20.9 6.5 2.5 13.8 5.6 21.9 9.4 2-8 4.1-16.2 6.3-24.6 1.8-7.8 3.2-15.3 4.2-22.5l.6-9.2m-56.9-96.9c-.9-.5-1.8-1-2.9-1.5 7.8 5.8 14.6 13.3 20.4 22.5l20.4 9.9c-9.3-12.9-21.9-23.2-37.9-30.9z"/>
      <path d="M187.3 431c2.7 4 5.1 8.3 7.2 13 7.9 17.3 11.6 35.4 11.2 54.4l21.1 8.5c.2-17.9-3.3-35-10.7-51.2v.3c-.6-1.7-1.4-3.4-2.3-5.1-1.8-3.5-3.8-6.8-6-9.9l-20.5-10z" fill="#ffb600"/>
    </g>
  </g>
  <g transform="translate(-.155 -468.523) scale(3.94492)">
    <path class="st2" d="M49.8 192.2c.9.3 1.5.5 2 .5 1 0 2.5-.9 4.6-2.6.2-.2.4-.3.6-.5-1.1-.4-1.9-.7-2.3-.9-3.6-1.5-5.6-2.3-6-2.4-.3-.1-.4-.2-.5-.4-.3.2-.6.5-1.1.8-2.4 1.7-3.4 2.6-3.1 2.8.3.2 1.8.9 4.5 2.2l1.3.5z" id="Symbol_1_copy_0_Layer6_1_FILL"/>
  </g>
  <g transform="translate(-1.25 -466.15) scale(1.2171)">
    <g id="Symbol_1_copy_0_Layer5_0_FILL">
      <path class="st4" d="M175.3 422.7c-1-1.4-2.1-2.7-3.3-3.9-12.6-13.5-28-20.6-46.1-21.4-18.5-1.8-36.8 3.3-55 15.3-9.8 6.5-18.4 14.1-25.7 22.8-9.7 11.4-17.4 24.9-23 40.5-.8 2-1.5 4-2.1 6.2-.4 1.3-.8 2.6-1.1 4 5.7-1.7 11.5-3.4 17.4-5-.2.4-.4.9-.7 1.5-.5 1.6-1.1 3.3-1.7 4.8-7.4 24-7 46.6 1.3 67.9 0 .1.1.3.2.3v.7c.6 1.5 1.3 3 2 4.5 8.4 18 21.6 29.9 39.5 35.7 13.6 3.9 27.3 3.3 40.9-1.8 3.8-1.6 7.8-3.6 11.8-6l3.6-2.4c.3-.1.6-.2.6-.3 1.2-.8 2.4-1.5 3.8-2.3.9-.7 1.7-1.3 2.6-1.9 1.7-1.4 3.5-2.8 5.2-4.3 1.3-1.2 2.6-2.4 3.8-3.6 5.2-5.2 9.7-10.8 13.6-17 .5-1 1.1-1.9 1.6-2.9 4.2-7.2 7.6-15.2 10.3-23.8 6.6-21.1 7.1-41.1 1.6-60.1-.9-3-1.9-6-3.1-9-2.9-7.3-6.5-13.7-10.7-19.1h.3c1.6-.5 3.3-1.1 4.9-1.7 5.5-1.8 11-3.7 16.5-5.5-1.9-3.2-4.1-6.3-6.3-9l2.9 1.1c-1.5-1-2.9-1.9-4.2-2.8-.4-.5-.9-1-1.3-1.5m-40.6 3.3c1.7.6 3.5 1.4 5.2 2.3 2.7 1.4 5.2 3 7.4 4.7 4.1 2.9 7.8 6.4 11.2 10.3 4.4 5.4 8.1 11.8 11.1 19.1 1 2.6 1.9 5.2 2.8 7.8 5.6 18.7 5.2 38.3-1.3 59-2.9 9.2-6.7 17.6-11.2 25.1-1 1.5-1.9 3-2.9 4.4-4.8 6.8-10.3 12.9-16.6 18.3h-.2c-1 .8-1.9 1.5-2.8 2.2-1.8 1.4-3.6 2.8-5.3 4-.2 0-.4 0-.5.1-3.7 2.4-7.3 4.4-11 6.2-1.7.8-3.5 1.5-5.2 2.1-6.1 2.2-12.2 3.4-18.3 3.8-6.4.3-12.8-.5-19.2-2.3-16.5-5.3-28.7-16-36.5-32-.8-1.5-1.4-3-1.9-4.5-.2-.3-.4-.7-.5-1 0-.3-.1-.5-.2-.7-8.5-20.7-9-42.8-1.5-66.3.9-3 1.9-5.9 3.1-8.6.1-.4.3-.9.5-1.3.5-1.4 1.1-2.8 1.8-4 6.7-14.8 16.2-26.9 28.6-36.3 1.7-1.4 3.5-2.7 5.3-3.9 1.3-.9 2.6-1.7 3.9-2.4 13.8-8.3 27.9-11.4 42.2-9.3 2.6.4 5.2 1.1 7.8 2 1.6.3 2.9.7 4.2 1.2z"/>
      <path d="M140 428.2c-2.5-.9-5-1.5-7.4-1.8-1.7-.3-3.5-.5-5.2-.5-9.6.4-19.1 3.5-28.5 9.2-1.3.8-2.5 1.5-3.8 2.3-1.8 1.2-3.6 2.4-5.2 3.7-11.9 9.1-21 20.7-27.4 34.8-.7 1.2-1.3 2.5-1.8 3.9-.2.4-.4.8-.5 1.1-1.1 2.6-2 5.3-2.9 8.3-7.2 22.5-6.8 43.6 1.5 63.6.1.1.2.3.2.6 0 .2.1.5.3.8.5 1.5 1.2 3 2 4.4 7.4 15.5 19.1 25.7 34.8 30.8 4 1.1 7.9 1.8 11.8 2.1h.3c4.2-.3 8.4-1 12.7-2.1 3.7-1.7 7.3-3.8 11-6.2.1-.1.3-.1.5-.1 1.7-1.3 3.5-2.7 5.3-4 .9-.7 1.8-1.4 2.8-2.2h.2c6.3-5.4 11.8-11.5 16.6-18.3 1-1.4 1.9-2.9 2.9-4.4 4.5-7.6 8.3-15.9 11.2-25.1 6.5-20.6 6.9-40.3 1.3-59-.8-2.6-1.8-5.2-2.8-7.8-3-7.3-6.7-13.7-11.1-19.1-3.4-4-7.1-7.4-11.2-10.3-2.4-1.7-4.9-3.3-7.6-4.7z" fill="#e78b00"/>
      <path class="st6" d="M132.5 426.4c2.5.3 4.9.9 7.4 1.8-1.7-.9-3.5-1.6-5.2-2.3-1.3-.4-2.6-.9-3.9-1.3-2.6-.9-5.2-1.5-7.8-2-14.3-2.2-28.3.9-42.2 9.3-1.3.7-2.6 1.5-3.9 2.4-1.8 1.2-3.6 2.5-5.3 3.9-12.4 9.4-22 21.5-28.6 36.3-.7 1.3-1.3 2.6-1.8 4-.2.4-.4.9-.5 1.3-1.2 2.7-2.2 5.6-3.1 8.6-7.6 23.4-7.1 45.5 1.5 66.3.1.1.2.4.2.7.1.3.3.7.5 1 .5 1.5 1.2 3 1.9 4.5 7.8 16.1 19.9 26.8 36.5 32 6.4 1.8 12.8 2.6 19.2 2.3 6.1-.3 12.2-1.6 18.3-3.8 1.7-.6 3.5-1.3 5.2-2.1-4.2 1.1-8.4 1.8-12.7 2.1h-.3c-3.9-.3-7.8-1-11.8-2.1-15.8-5.1-27.4-15.3-34.8-30.8-.8-1.4-1.4-2.9-2-4.4-.2-.3-.3-.6-.3-.8 0-.3 0-.5-.2-.6-8.2-19.9-8.7-41.1-1.5-63.6.9-2.9 1.8-5.7 2.9-8.3.1-.3.3-.7.5-1.1.5-1.4 1.1-2.7 1.8-3.9C68.9 461.7 78 450 89.9 441c1.6-1.3 3.4-2.5 5.2-3.7 1.2-.8 2.5-1.5 3.8-2.3 9.4-5.7 18.9-8.8 28.5-9.2 1.7.2 3.4.3 5.1.6z"/>
      <path class="st0" d="M185.2 436.5c-.3-.5-.6-1-1-1.5-5.5 1.8-11 3.7-16.5 5.5-1.6.6-3.2 1.1-4.9 1.7h-.3c4.2 5.4 7.8 11.8 10.7 19.1 1.2 2.9 2.2 5.9 3.1 9 5.5 19 5 39-1.6 60.1-2.6 8.6-6 16.6-10.3 23.8-.5 1-1.1 2-1.6 2.9-3.9 6.2-8.4 11.8-13.6 17-1.2 1.2-2.4 2.4-3.8 3.6-1.7 1.4-3.5 2.8-5.2 4.3-.8.6-1.7 1.3-2.6 1.9-1.3.7-2.6 1.5-3.8 2.3-.1.1-.3.2-.6.3-1.2.9-2.4 1.7-3.6 2.4-4.1 2.4-8.1 4.4-11.8 6-13.6 5.1-27.2 5.7-40.9 1.8C59.2 590.9 46 579 37.6 561c-.7-1.5-1.3-3-2-4.5v-.7c-.1-.1-.2-.2-.2-.3-8.3-21.3-8.7-43.9-1.3-67.9.6-1.6 1.1-3.2 1.7-4.8.2-.5.4-1 .7-1.5-5.8 1.6-11.6 3.3-17.4 5-6.4 22.4-7.1 43.8-2.3 64.3.9 3.5 1.9 7 3 10.6.8 2.2 1.6 4.4 2.5 6.6v.2c5.2 12.9 12 23.4 20.5 31.6 8.3 8 18.3 13.8 30 17.4 19.8 5.9 39.4 4 59-5.9 2.2-1.3 4.5-2.7 7.1-4.2 1.2-.8 2.4-1.5 3.6-2.3h.1c9.9-6.7 18.7-14.5 26.3-23.5 4-4.9 7.7-10.1 11.1-15.8.4-.8.9-1.5 1.3-2.3 1.7-2.9 3.3-6 4.9-9.1 2.7-5.9 5.1-12.2 7.3-18.8 3.1-10 5.1-19.9 6-29.5 1.2-12.1.6-23.9-1.8-35.5-1.5-7-3.7-14-6.4-20.8-1.6-4.5-3.6-8.8-6.1-12.8z"/>
    </g>
  </g>
  <g transform="translate(-167.02 -623.521) scale(3.94492)">
    <path class="st2" d="M66.3 170.9c.6-.4.9-.8 1.2-1.1.4-.6.4-1.1-.1-1.5-.2-.3-.6-.4-1-.4-.1 0-.5.1-1.1.3-1.3.4-2.1.8-2.6 1.1-.6.4-1 .8-1.3 1.4-.6.8-.6 1.4-.1 1.9.1.1.3.2.7.4.6.2 1 .3 1.3.1.2 0 .4-.1.7-.3l2.3-1.9z" id="Symbol_1_copy_0_Layer5_1_FILL"/>
  </g>
  <g transform="translate(-1.25 -466.15) scale(1.2171)">
    <path class="st7" d="M125.2 473.4l-4.5-4.5-10.1-5.7-10.8 11.2-3.4 49.9-12.7-52-12.4-4.7-7.7 1.1-2.6 7.8-5.2 73.5-1.4.9 7.6 5.3 13.3.2 2.3-42.8 9.4 35.6-2.1 1 7.9 5 28.9 1.2-1-.4 11.7-.3 2.6-21.3c4.5.7 9 .1 13.4-1.8 1.2-.6 2.5-1.2 4.1-1.8 1.9-.8 3.4-1.6 4.5-2.6 1.6-1.7 3.3-3.5 4.9-5.4 3.1-3.5 5.5-7.7 7.1-12.8 2.6-8.1 3.1-16.4 1.7-25-.6-2.6-1.6-5.3-2.9-7.9-.7-1.3-2.8-4.5-6.3-9.6.4 1.7-1 2-4.2.8-4.3-1.7-8.7-2.4-13.2-2-3.6.1-7.2.9-11 2.5-1.7.9-3.5 1.8-5.2 2.8-1.2.8-2 1.3-2.7 1.8z" id="Symbol_1_copy_0_Layer4_0_FILL"/>
  </g>
  <g transform="translate(-.155 -468.523) scale(3.94492)">
    <path class="st7" d="M14.6 151.5l-.5 2.3c-.7 4.2-.4 8.3.7 12.5.4 1.3.8 2.4 1.3 3.3.8 1.3 1.7 1.9 2.6 1.9.8.1 1.4-.2 1.9-.8.4-.6.6-1.3.4-2-.1-.3-.2-.6-.4-.9-.1-.2-.3-.4-.6-.8-.6-1-1-2.3-1.4-4.1-.4-1.9-.6-3.4-.5-4.8 0-.7.1-1.8.3-3.3l.5-3.3c.2-1.4.4-2.2.5-2.6.1-.3.3-.7.5-1.2s.3-.9.2-1.3c0-.4-.2-.8-.6-1.1-.3-.3-.7-.5-1.2-.4-.9 0-1.7.7-2.4 1.9-.5 1.1-.9 2.7-1.3 4.7z" id="Symbol_1_copy_0_Layer4_1_FILL"/>
  </g>
  <g transform="translate(-.155 -468.523) scale(3.94492)">
    <path class="st7" d="M49.7 143.4c-.4-.3-1-.5-1.7-.7-.8-.2-1.4-.4-1.8-.5-.5-.2-.8-.3-1.1-.3-.4-.1-.8-.2-1-.1-.4.1-.8.3-1 .6-.3.4-.5.7-.4 1.1.1.3.3.5.6.8.4.3 1.3.7 2.5 1.1 1.2.4 2 .9 2.4 1.5.3.3.6.8.8 1.5.8 2.1 1.1 3.9 1 5.5-.2 2.2-.9 3.9-2.3 5.1-.6.5-1.4 1-2.5 1.4l-1.8.8c-.7.4-1.1.9-1.3 1.5 0 0 0 .1-.1.1-.5.4-.9.8-1.3 1.4-.4.6-.6 1.5-.8 2.8l-.3 1.5-1.1.3c-.5.2-.8.4-1 .7-.4.6-.4 1.2.2 1.8.3.4.9.7 1.8.9.9.2 1.6.2 2.3.1.7-.1 1.1-.3 1.3-.7.2-.3.3-.7.4-1.1v-1.1c0-.7.1-1.6.3-2.6 0-.2 0-.4.2-.6.1-.2.2-.5.5-.7l.3-.3c.1 0 .2 0 .3-.1.7-.2 1.4-.5 2.2-1 1.8-1 3.1-2 4-2.9 1.2-1.4 1.9-3.1 2.3-5 .4-1.7.4-3.5.2-5.5-.1-.7-.2-1.3-.3-1.8-.1-.4-.4-1.1-.9-1.9-1.1-1.9-2-3.1-2.9-3.6z" id="Symbol_1_copy_0_Layer4_2_FILL"/>
  </g>
  <g transform="translate(-.155 -468.523) scale(3.94492)">
    <g id="Symbol_1_copy_0_Layer3_0_FILL">
      <path class="st6" d="M16.1 145.5c-.2.2-.3.4-.3.6L14.2 170c0 .1 0 .2.1.4.1.1.2.1.4.1.9.1 1.7.2 2.3.3l2.3.2h.2s.1-.1.1-.2c.2-.1.3-.3.3-.6v-.2l.8-10.6c1.3 3.1 2.8 6.8 4.6 11.2 0 .1.1.1.1.2s.1.1.3.1l4.7.4h.1c.2 0 .4-.1.6-.2.3-.2.4-.4.4-.7l2.7-26.1v-.1-.4-.1c-.1-.2-.3-.3-.4-.4s-.3-.1-.5-.1h-.1l-5.6.9c-.1 0-.2.1-.3.2-.1.1-.1.2-.1.3-.4 3.6-.8 6.7-1.2 9.3-.1.6-.2 1.2-.3 1.7-1.7-5.3-2.8-8.9-3.2-10.7 0-.1-.1-.2-.2-.3-.1-.1-.2-.1-.4-.1l-5 .6c-.4 0-.7.1-.8.4m11.8-.6l5.3-.8-2.7 26.2-4.4-.4c-2.1-5.2-3.9-9.4-5.3-12.8 0-.1-.1-.2-.2-.2-.1-.1-.2-.1-.3-.1-.1 0-.2.1-.3.2-.1.1-.1.2-.1.3l-.9 12.6-1.9-.2c-.4 0-1-.1-1.7-.1l1.5-23.4v-.1l4.6-.6c.5 2.1 1.7 6 3.6 11.8v.1l.2.3c0 .2.1.3.2.3.2.2.5.2.7-.1 0 0 0-.1.1-.3 0-.1 0-.3.1-.6.1-.6.3-1.6.5-2.9.2-2.7.6-5.7 1-9.2m22.6.6v-.1c-.8-1.5-2-2.6-3.6-3.1-1.4-.6-2.9-.8-4.3-.7h-.1c-1.1 0-2.3.3-3.5.8-.1 0-.2 0-.2.1-.5.3-1 .5-1.5.8-.2 0-.3.1-.4.2-.4.2-.7.4-1 .6-.2.2-.3.4-.3.7L34 170.2c0 .1 0 .2.1.4v.1c.1.1.2.3.4.4h.1c.1.1.3.1.4.1l4-.1c.2 0 .4-.1.6-.2 0-.1.1-.1.2-.1.1-.2.1-.3.2-.5v-.1l1.1-7.1c3.8.5 7-1.4 9.5-5.6v-.1c.1-.4.3-.7.4-1.1.8-2.6 1-5.3.5-8.1v-.1c-.1-.3-.1-.5-.2-.8-.3-.6-.5-1.2-.8-1.8m-1 .3v.1c.3.5.5 1.1.8 1.6 0 .2.1.5.2.7v.1c.5 2.6.3 5.2-.5 7.7-.1.4-.3.7-.4 1.1-2.3 3.9-5.3 5.5-8.9 4.9-.1 0-.2 0-.3.1-.1 0-.2 0-.3.1-.1.1-.1.1-.1.3l-1.1 7.6-4 .1 1.7-25.4c.2-.2.5-.4.9-.6.1 0 .1-.1.2-.1.5-.3.9-.5 1.4-.8v-.1c1.1-.5 2.2-.7 3.2-.8h.1c1.3-.1 2.6.1 3.9.6v.1c1.5.6 2.5 1.5 3.2 2.7m-5.3 3.2c-.2 0-.3-.1-.5-.1-.9-.1-1.7 0-2.6.4-.1 0-.1.1-.2.1-.1.1-.1.1-.1.3l-.5 6.4c0 .1 0 .3.1.4.1.1.2.1.3.1.9.1 1.8-.1 2.8-.5v.1c1.2-.5 2.2-1.3 2.8-2.5v-.1c.2-.4.3-.8.4-1.1.1-.6 0-1.2-.3-1.8-.3-1-1.1-1.6-2.2-1.7m-.6.9c.2 0 .3 0 .5.1h.1c.7.1 1.2.5 1.5 1.2.2.4.2.8.2 1.2l-.3.9c-.5 1-1.3 1.6-2.3 2h-.1c-.6.3-1.2.4-1.8.4l.5-5.6c.5-.2 1.1-.2 1.7-.2z"/>
      <path class="st2" d="M33.2 144.1l-5.3.8c-.4 3.4-.8 6.4-1.2 9.1-.2 1.3-.4 2.3-.5 2.9-.1.3-.1.5-.1.6-.1.2-.1.3-.1.3-.2.3-.5.3-.7.1-.1 0-.2-.1-.2-.3l-.2-.3v-.1c-1.9-5.7-3.1-9.7-3.6-11.8l-4.6.6v.1l-1.5 23.4c.7.1 1.3.1 1.7.1l1.9.2.9-12.6c0-.1 0-.2.1-.3.1-.1.2-.2.3-.2.1 0 .2 0 .3.1.1 0 .2.1.2.2 1.4 3.4 3.2 7.7 5.3 12.8l4.4.4 2.9-26.1m16.3 1.8v-.1c-.7-1.2-1.7-2.1-3-2.6v-.1c-1.3-.5-2.6-.7-3.9-.6h-.1c-1 0-2.1.3-3.2.8v.1c-.5.2-.9.5-1.4.8-.1 0-.1.1-.2.1-.4.2-.7.3-.9.6L35 170.2l4-.1 1.1-7.6c0-.1 0-.2.1-.3.1-.1.2-.1.3-.1.1 0 .2-.1.3-.1 3.6.6 6.6-1 8.9-4.9.1-.4.3-.7.4-1.1.8-2.5.9-5.1.5-7.7v-.1c-.1-.2-.1-.5-.2-.7-.3-.5-.6-1-.9-1.6m-5.8 3c.2 0 .3 0 .5.1 1.1.1 1.9.7 2.3 1.8.2.5.3 1.1.3 1.8-.1.3-.2.7-.4 1.1v.1c-.6 1.2-1.6 2-2.8 2.5v-.1c-1 .4-1.9.6-2.8.5-.1 0-.2-.1-.3-.1-.1-.1-.1-.3-.1-.4l.5-6.4c0-.1 0-.2.1-.3.1-.1.1-.1.2-.1.8-.5 1.6-.6 2.5-.5z"/>
    </g>
  </g>
  <g transform="translate(-.155 -468.523) scale(3.94492)">
    <path class="st4" d="M20.7 148.6c.5-.3.8-.7.8-1.3 0-.6-.2-1.1-.7-1.4-2.6.4-3.9.8-4 1.2-.2.6-.1 1.3.3 2 .6-.1 1.2-.2 2-.2.7 0 1.3-.1 1.6-.3z" id="Symbol_1_copy_0_Layer3_1_FILL"/>
  </g>
  <g transform="translate(1.428 -479.72) scale(3.94492)">
    <path class="st4" d="M32.6 148.5c-.1-.1-.2-.3-.3-.4-.5-.5-1.1-.8-2-.8-.3 0-.8 0-1.4.1-.4.1-.8.2-1.1.4 0 0-.1.1-.2.1l-.2 1.6s0 .3-.1.9c.2.2.4.4.6.5.3.2.9.3 1.8.3.5.1.9.2 1.1.2.8-.1 1.4-.4 1.7-1.1l.1-1.8z" id="Symbol_1_copy_0_Layer3_2_FILL"/>
  </g>
  <g transform="translate(-.155 -468.523) scale(3.94492)">
    <path class="st4" d="M28.5 191.2l2.6-.1c.8.1 1.5 0 2.1-.4.8-.6 1.1-1.4.9-2.4-.2-1-.9-1.6-1.9-1.9-.5-.1-1.2-.1-2.1.1-.2 0-.8 0-1.7-.1-2.8-.4-4.7-.7-5.8-1-1.4-.4-2.3-.5-2.8-.5-.5.1-.9.2-1.4.5-.4.3-.7.7-.7 1.2-.1.7.4 1.5 1.3 2.2 1.3.9 3.1 1.6 5.5 2.1 1.8.1 3.1.2 4 .3z" id="Symbol_1_copy_0_Layer3_3_FILL"/>
  </g>
  <g transform="translate(-2.102 -478.138) scale(1.2171)">
    <path class="st4" d="M144 479c5.6.3 10.2 1.6 13.8 3.9 3.4 2.2 5.1 1.3 5.1-2.6-.5-1.3-1.4-2.5-2.6-3.6-1.9-2.2-4.3-3.7-7.1-4.7l-3.8-.8c-8.2-1.3-15.6-.8-22.3 1.5-6.4 2.1-8.4 6.2-6 12.5.8-.3 1.6-.7 2.4-1 8.1-3.8 14.9-5.6 20.5-5.2z" id="Symbol_1_copy_0_Layer3_4_FILL"/>
  </g>
  <g transform="translate(-1.25 -466.15) scale(1.2171)">
    <path d="M160.7 389.2c-13.5-4.3-26.4-6.4-38.6-6.2-10.2.2-21.5 2.1-33.8 5.7-.5 0-1 .1-1.5.3-1.3.4-2.4 1-3.4 1.6l.1-.1c-8.8 3.7-17.3 8.7-25.8 15-25.8 19-43 45.4-51.6 79-8.9 33.8-6.6 65.2 6.9 94.3.1.2.3.5.5.7 13.8 30.3 35.5 49 64.9 56.1.2 0 9.9 2.4 29 7.1 2.6.2 5.4.4 8.3.6 12.6.7 24.9-.6 36.8-3.7 12.2-3.8 24.4-11 36.6-21.5 13-10.3 25.2-25 36.8-44.1l-4.3 6.8c6.4-11.1 11.4-23.5 15-37.3 2.4-10.1 3.9-19.8 4.6-29v-.3c.1-1.8.2-3.8.2-5.9l.1-3.7v-.4-.3c-.1-9.1-1-17.8-2.8-26.1v-.6c-2-9.3-4.9-18.3-8.6-27.1l-.6-.9c-.7-1.5-1.5-3-2.3-4.5-11.2-21.1-23.8-35.1-37.8-42-13.7-6.6-21.4-10.4-22.9-11.3-.1-.1-.2-.2-.3-.2-.5-.2-1-.4-1.3-.5l-2.9-.9c-.3-.4-.8-.6-1.3-.6m7.1 19.7c.7.2 1.3.6 1.9 1 16 7.7 28.7 18 37.9 30.9 2.2 3.1 4.2 6.4 6 9.9.9 1.7 1.6 3.4 2.3 5.1v-.3c7.7 17 11.2 34.9 10.6 53.6-.1.9-.1 1.8-.1 2.9-.7 8.4-2.1 17.2-4.4 26.3-3.2 12.4-7.7 23.6-13.3 33.5 0 .1-.1.2-.3.3-8 13.9-15.6 24.6-22.9 32.1-7.4 7.5-14.4 13.1-21.1 16.8-6.8 3.8-13.4 6.4-19.9 7.7-6.5 1.3-11 1.9-13.4 1.9-2.5-.1-3.6-.3-3.3-.6l-25.3-3.8c-1.4-.5-2.5-1-3.3-1.3-15.8-3.7-26.1-6.9-31.1-9.6 1.4.4 2.8.7 4.1 1.1-23.2-7.3-39.9-23.6-50-48.8v-.2c-10.8-26.8-11.5-55.3-2.1-85.6 9.5-30.2 26.5-53.4 50.9-69.5 20.8-13.7 43.1-18.2 67-13.5 8.2 1.1 17.8 4.1 28.9 9.3.3.5.6.6.9.8z" fill="#825e10" id="Symbol_1_copy_0_Layer1_0_FILL"/>
  </g>
  <g transform="translate(-.155 -468.523) scale(3.94492)">
    <path d="M51.2 126.6c-3.4-1.6-6.4-2.5-8.9-2.8h-.2c.2 0 .4.1.7.2.1 0 .3.1.4.2.1 0 .3.1.4.2.4.1.8.2 1.2.4 1.7.6 3.2 1.4 4.6 2.4 3 2.1 5.5 4.8 7.5 8.2.8 1.2 1.4 2.6 1.9 4 2.2 5.5 3.1 11.3 2.5 17.4-.3 3-.9 6-1.9 9.1-1.1 3.4-2.5 6.5-4.2 9.3-2.9 4.9-6.8 8.9-11.5 12.1-.4.2-.7.5-1.1.7-.8.5-1.5.9-2.2 1.3-4.3 2.2-8.7 3.1-13.1 2.8-.5-.1-1.1-.1-1.6-.2-1.1-.2-2.2-.5-3.5-.8-.5-.1-1-.3-1.5-.4 1.6.9 3.2 1.6 4.9 2.1 1 .4 2.3.7 3.9.8l1 .1c4.2.1 8.5-.9 12.8-3.1v-.1l.6-.3c.6-.3 1.1-.7 1.6-1l1.2-.9c4.8-3.5 8.6-7.9 11.3-13.1 1.6-3 2.9-6.3 3.8-9.9.8-3.2 1.3-6.4 1.5-9.6.3-6.2-.8-12.2-3.4-17.9-.6-1.4-1.4-2.8-2.2-4-2-3.1-4.1-5.4-6.5-7.2z" fill="#e98d00" id="Symbol_1_copy_0_Layer1_1_FILL"/>
  </g>
</svg>
